<svg version="1.0" xmlns="http://www.w3.org/2000/svg" width="800.000000" height="800.000000" viewBox="0 0 800.000000 800.000000" preserveAspectRatio="xMidYMid meet">
  <metadata>
    <rdf:RDF xmlns:rdf="http://www.w3.org/1999/02/22-rdf-syntax-ns#" xmlns:rdfs="http://www.w3.org/2000/01/rdf-schema#" xmlns:dc="http://purl.org/dc/elements/1.1/">
      <rdf:Description dc:format="image/svg+xml" dc:Label="1" dc:ContentProducer="001191330110MACRLGPT8B00000" dc:ProduceID="441882436" dc:ReservedCode1="g3e20VRXSlAgZJ6g/enP0CxpVnz+wrZYA4OAUCSclQU=" dc:ContentPropagator="001191330110MACRLGPT8B00000" dc:PropagateID="441882436" dc:ReservedCode2="g3e20VRXSlAgZJ6g/enP0CxpVnz+wrZYA4OAUCSclQU="/>
    </rdf:RDF>
  </metadata>
  <g transform="translate(0.000000,800.000000) scale(0.100000,-0.100000)" fill="#000000" stroke="none">
    <path d="M4385 6213 c-235 -33 -421 -180 -508 -402 -38 -96 -43 -225 -13 -339 l18 -73 -23 -17 c-13 -9 -54 -42 -91 -74 -37 -32 -71 -58 -76 -58 -4 0 -21 14 -38 31 -115 120 -338 231 -563 279 -90 20 -123 22 -264 17 -232 -7 -360 -41 -526 -140 -90 -54 -210 -161 -265 -236 -122 -168 -211 -419 -223 -631 -13 -225 53 -468 177 -650 92 -135 247 -273 387 -344 l52 -26 -13 -32 c-8 -18 -26 -77 -41 -130 l-28 -98 -36 -5 c-148 -21 -261 -69 -347 -147 -145 -134 -216 -317 -194 -504 18 -154 60 -244 161 -345 180 -181 492 -232 713 -117 82 43 221 183 264 265 81 154 81 355 0 521 -44 92 -149 195 -245 242 -81 39 -81 41 -57 134 39 154 30 139 77 132 149 -22 247 -26 342 -15 108 12 243 47 305 79 22 11 45 20 53 20 7 0 28 -22 45 -49 33 -50 212 -256 300 -346 l49 -49 -33 -71 c-130 -273 -92 -567 96 -755 74 -74 131 -107 244 -144 331 -108 668 52 756 358 29 102 33 172 15 259 -20 96 -43 152 -101 238 -86 130 -207 219 -375 276 -92 32 -111 35 -212 35 -63 -1 -134 -7 -162 -14 l-50 -14 -190 194 c-104 107 -191 198 -193 203 -2 4 36 45 84 91 101 97 149 165 211 294 l44 94 207 -1 c114 -1 218 -4 232 -8 22 -6 25 -15 37 -94 22 -152 85 -272 200 -377 195 -178 561 -272 809 -206 224 59 452 308 521 566 24 93 24 294 -1 375 -77 249 -298 461 -556 535 -218 62 -457 21 -650 -110 -131 -89 -225 -209 -290 -367 -15 -38 -32 -68 -38 -67 -7 1 -105 2 -218 3 l-207 1 7 88 c11 146 -24 307 -109 506 -16 37 -16 39 6 62 12 13 55 49 94 79 l72 55 62 -41 c222 -148 566 -123 760 56 116 108 169 229 178 405 5 89 2 118 -17 187 -56 209 -244 362 -500 409 -41 7 -79 13 -85 12 -5 0 -23 -3 -40 -5z m90 -323 c3 -5 -3 -10 -14 -10 -10 0 -41 -18 -68 -39 -64 -52 -224 -208 -252 -246 l-22 -30 4 75 c7 132 64 206 192 246 48 15 151 18 160 4z m155 -45 c40 -20 70 -44 70 -57 0 -4 -15 -8 -34 -8 -29 0 -47 -11 -108 -67 -41 -38 -115 -103 -166 -146 -51 -43 -97 -90 -102 -103 -18 -46 -12 -64 26 -80 33 -14 39 -13 78 6 52 25 300 274 320 321 l13 32 13 -38 c17 -52 7 -165 -20 -221 -27 -55 -67 -89 -149 -127 -60 -27 -72 -28 -160 -25 -112 4 -147 18 -214 83 -61 61 -65 80 -17 80 43 0 91 38 224 173 117 120 134 152 101 198 -14 21 -14 21 38 9 29 -7 68 -20 87 -30z m-1649 -565 c265 -43 375 -92 511 -226 114 -112 208 -358 208 -543 0 -209 -125 -466 -293 -599 -127 -102 -275 -164 -432 -184 -76 -9 -106 -8 -188 6 -201 34 -352 110 -483 240 -67 67 -89 97 -127 176 -68 140 -81 200 -81 360 1 159 28 280 91 408 93 187 286 324 518 367 97 18 142 17 276 -5z m2331 -600 c137 -42 240 -139 311 -290 27 -57 31 -75 29 -146 -3 -213 -103 -395 -263 -479 -63 -33 -83 -38 -159 -43 -181 -10 -383 59 -487 166 -121 124 -134 326 -35 525 64 129 193 229 347 272 75 20 182 18 257 -5z m-1095 -1686 l33 -5 -26 -40 c-41 -65 -124 -254 -124 -282 0 -32 44 -147 76 -199 50 -79 107 -56 167 69 57 120 56 132 -22 386 -10 31 -14 57 -9 57 26 0 122 -56 159 -93 63 -62 93 -136 93 -222 -1 -86 -20 -131 -81 -196 -71 -76 -176 -98 -306 -64 -117 30 -179 79 -225 175 -21 45 -26 70 -27 135 0 120 18 169 86 237 l58 57 58 -5 c32 -3 73 -7 90 -10z m-1837 -8 c0 -3 -49 -54 -109 -114 -151 -151 -198 -248 -141 -294 26 -21 55 -18 96 8 34 23 126 148 170 232 42 81 47 127 18 150 -17 13 -15 14 24 8 181 -27 299 -217 232 -374 -26 -61 -101 -134 -176 -172 -43 -22 -62 -25 -154 -25 -122 0 -160 15 -224 85 -50 56 -67 99 -73 190 -5 63 -2 84 17 128 25 57 82 115 139 140 55 24 181 50 181 38z"/>
    <path d="M3160 4881 c-61 -20 -101 -49 -183 -134 l-88 -92 -30 35 c-149 169 -160 175 -289 175 -84 0 -102 -3 -151 -28 -72 -35 -132 -100 -172 -185 -29 -60 -32 -77 -32 -157 0 -78 4 -97 28 -146 41 -84 98 -143 173 -180 57 -28 76 -33 144 -33 64 0 87 5 132 27 48 24 144 109 193 172 15 20 16 20 32 -5 34 -50 109 -116 173 -150 61 -33 70 -35 160 -35 81 0 102 4 143 24 71 37 125 107 152 199 79 260 -61 506 -293 518 -37 2 -78 0 -92 -5z m124 -265 c58 -59 60 -150 4 -206 -38 -39 -72 -38 -132 1 -42 28 -105 95 -95 102 2 2 36 33 76 70 40 37 81 67 92 67 11 0 36 -15 55 -34z m-602 -48 c32 -35 58 -66 58 -69 0 -9 -88 -83 -117 -98 -34 -17 -87 -13 -116 9 -74 58 -50 183 39 210 62 18 76 13 136 -52z"/>
    <path d="M5005 4510 c-11 -5 -33 -20 -50 -33 l-30 -25 -1 -194 c0 -127 -5 -201 -12 -215 -28 -52 -3 -108 53 -119 21 -4 41 -16 51 -31 13 -22 21 -24 51 -20 20 4 43 12 52 20 9 8 39 17 66 21 111 14 199 90 198 170 -1 47 -13 78 -46 114 -18 19 -19 26 -9 40 40 56 38 111 -5 162 -31 37 -80 63 -179 96 -79 25 -106 28 -139 14z m146 -185 c0 -6 -10 -12 -23 -13 -19 -4 -20 -2 -9 12 15 17 33 18 32 1z m19 -205 c12 -8 9 -10 -13 -10 -16 0 -26 4 -22 10 8 12 16 12 35 0z"/>
    <path d="M2464 2798 c-26 -35 -55 -83 -66 -108 -10 -25 -28 -64 -39 -87 -47 -99 -44 -153 9 -153 35 0 70 36 106 108 23 45 30 52 55 52 16 0 39 9 52 19 21 17 24 30 27 100 5 101 -10 131 -63 131 -31 0 -40 -7 -81 -62z"/>
  </g>
</svg>